# xmcd
#
# Track frame offsets:
#	150
#	18575
#	34362
#	52137
#	69325
#
# Disc length: 1225 seconds
#
# Revision: 0
# Processed by: cddbd v1.5.1PL0 Copyright (c) Steve Scherf et al.
# Submitted via: dBpowerAMP V4.0
#
DISCID=4304c705
DTITLE=º~¬v - New Born
DYEAR=1900
DGENRE=
TTITLE0=¥¢ÅÊ2000
TTITLE1=À´§A
TTITLE2=­É¾K
TTITLE3=ÅÊ·R
TTITLE4=Å«¸o
EXTD=
EXTT0=
EXTT1=
EXTT2=
EXTT3=
EXTT4=
PLAYORDER=
